<svg width="512" height="512" viewBox="0 0 512 512" fill="none" xmlns="http://www.w3.org/2000/svg">
  <rect width="512" height="512" rx="128" fill="#000000"/>
  <path d="M256 128C185.308 128 128 185.308 128 256C128 326.692 185.308 384 256 384C326.692 384 384 326.692 384 256C384 185.308 326.692 128 256 128ZM256 352C202.981 352 160 309.019 160 256C160 202.981 202.981 160 256 160C309.019 160 352 202.981 352 256C352 309.019 309.019 352 256 352Z" fill="white"/>
  <circle cx="256" cy="256" r="48" fill="white"/>
  <path d="M256 192L288 224L256 256L224 224L256 192Z" fill="white"/>
  <path d="M256 320L288 288L256 256L224 288L256 320Z" fill="white"/>
  <path d="M192 256L224 288L256 256L224 224L192 256Z" fill="white"/>
  <path d="M320 256L288 224L256 256L288 288L320 256Z" fill="white"/>
</svg>

